<?xml version="1.0" encoding="utf-8"?>
<!-- Generator: Adobe Illustrator 16.0.4, SVG Export Plug-In . SVG Version: 6.00 Build 0)  -->
<!DOCTYPE svg PUBLIC "-//W3C//DTD SVG 1.1//EN" "http://www.w3.org/Graphics/SVG/1.1/DTD/svg11.dtd">
<svg version="1.1" id="Layer_1" xmlns="http://www.w3.org/2000/svg" xmlns:xlink="http://www.w3.org/1999/xlink" x="0px" y="0px"
	 width="103px" height="103px" viewBox="0 0 103 103" enable-background="new 0 0 103 103" xml:space="preserve">
<g>
	
		<rect x="16.838" y="17.029" transform="matrix(-0.6935 0.7205 -0.7205 -0.6935 124.0147 50.2549)" fill="#FCF9CC" width="68.958" height="68.959"/>
	<path fill="#424749" d="M50.427,4.876l47.521,45.741l-45.74,47.519L4.686,52.398L50.427,4.876 M50.346,0.635L0.444,52.479
		l51.845,49.899l49.901-51.842L50.346,0.635L50.346,0.635z"/>
</g>
<g>
	<path fill="#424749" d="M78.465,40.422l-8.879-8.878c-0.686-0.687-1.725-0.891-2.621-0.521c-0.896,0.372-1.486,1.247-1.486,2.217
		v4.441c-5.963,1.158-11.066,4.928-13.988,10.073c-2.92-5.146-7.965-8.916-13.984-10.073V33.24c0-0.97-0.583-1.845-1.48-2.217
		c-0.894-0.372-1.925-0.166-2.612,0.522l-8.879,8.878c-0.938,0.938-0.938,2.457,0,3.393l8.879,8.88
		c0.688,0.688,1.717,0.893,2.613,0.521c0.897-0.373,1.481-1.248,1.481-2.218v-3.344c4.13,1.579,7.021,5.564,7.021,10.219V70.86
		c0,1.961,1.587,3.547,3.545,3.547h0.756h5.333h0.742c1.959,0,3.545-1.588,3.545-3.547V57.877c0-4.656,2.951-8.642,7.021-10.219
		v3.344c0,0.973,0.588,1.846,1.488,2.218c0.895,0.371,1.93,0.166,2.617-0.52l8.883-8.882C79.404,42.881,79.404,41.362,78.465,40.422
		z"/>
</g>
</svg>
