<?xml version="1.0" encoding="utf-8"?>
<!-- Generator: Adobe Illustrator 16.0.4, SVG Export Plug-In . SVG Version: 6.00 Build 0)  -->
<!DOCTYPE svg PUBLIC "-//W3C//DTD SVG 1.1//EN" "http://www.w3.org/Graphics/SVG/1.1/DTD/svg11.dtd">
<svg version="1.1" id="Layer_1" xmlns="http://www.w3.org/2000/svg" xmlns:xlink="http://www.w3.org/1999/xlink" x="0px" y="0px"
	 width="103px" height="103px" viewBox="0 0 103 103" enable-background="new 0 0 103 103" xml:space="preserve">
<g>
	<g>
		<path fill="#FEE87B" d="M51.5,101.162c-13.277-0.001-25.756-5.174-35.138-14.566C-2.988,67.22-2.969,35.713,16.405,16.361
			C25.782,6.996,38.246,1.838,51.499,1.838c13.277,0,25.756,5.173,35.138,14.567c9.375,9.386,14.533,21.86,14.525,35.125
			c-0.008,13.266-5.181,25.733-14.566,35.106c-9.378,9.367-21.842,14.525-35.094,14.525C51.5,101.162,51.5,101.162,51.5,101.162z
			 M20.113,34.524c-2.806,5.186-4.284,11.025-4.284,16.957c0,19.667,16.001,35.668,35.67,35.668
			c19.668,0,35.669-16.001,35.669-35.669c0-9.205-3.508-17.947-9.876-24.618c-6.348-6.648-14.876-10.558-24.014-11.009l-0.153-0.004
			c-0.808,0-1.573,0.306-2.156,0.86C50.353,17.3,50,18.124,50,18.973v7.342c0,1.644,1.284,3.013,2.924,3.118
			c11.589,0.74,20.667,10.424,20.667,22.047c0,12.181-9.91,22.091-22.091,22.091C39.318,73.57,29.408,63.66,29.408,51.48
			c0-1.896,0.237-3.761,0.707-5.57l0.764,0.859c0.582,0.668,1.438,1.058,2.342,1.058c0.203,0,0.407-0.02,0.61-0.06
			c1.092-0.218,1.991-1.007,2.348-2.06l5.308-18.417c0.336-0.987,0.103-2.161-0.63-2.997c-0.595-0.677-1.45-1.065-2.349-1.065
			c-0.203,0-0.408,0.02-0.611,0.061l-18.014,3.894c-1.068,0.212-1.968,1.002-2.326,2.056c-0.358,1.053-0.125,2.227,0.609,3.062
			L20.113,34.524z"/>
		<path fill="#424749" d="M51.499,3.338c12.876,0,24.978,5.017,34.076,14.127c9.092,9.102,14.095,21.2,14.087,34.064
			c-0.007,12.864-5.024,24.956-14.127,34.046C76.44,94.659,64.354,99.662,51.5,99.662c-12.876,0-24.978-5.017-34.077-14.127
			c-18.766-18.79-18.747-49.346,0.042-68.113C26.559,8.34,38.646,3.338,51.499,3.338 M51.5,72.071L51.5,72.071
			C40.146,72.07,30.908,62.833,30.908,51.48c0-0.901,0.058-1.795,0.172-2.678c0.653,0.341,1.386,0.525,2.141,0.525
			c0.302,0,0.606-0.03,0.904-0.089c1.615-0.322,2.947-1.49,3.475-3.049l0.022-0.065l0.02-0.067l5.272-18.3
			c0.489-1.538,0.137-3.235-0.93-4.453c-0.878-1-2.145-1.574-3.475-1.574c-0.303,0-0.608,0.03-0.951,0.099l-17.942,3.879
			c-1.616,0.322-2.949,1.49-3.477,3.048c-0.53,1.56-0.185,3.297,0.9,4.533l1.271,1.451C15.7,39.909,14.33,45.652,14.33,51.481
			c0,20.495,16.675,37.168,37.17,37.168c20.495,0,37.169-16.674,37.169-37.169c0-9.592-3.655-18.703-10.291-25.654
			c-6.614-6.927-15.501-11.001-25.029-11.472c-0.074-0.003-0.148-0.005-0.223-0.005c-1.194,0-2.327,0.453-3.195,1.279
			c-0.909,0.869-1.431,2.088-1.431,3.345v7.342c0,2.433,1.901,4.459,4.328,4.615c10.802,0.69,19.263,9.717,19.263,20.55
			C72.091,62.834,62.854,72.071,51.5,72.071 M51.499,0.338c-13.084,0-26.165,4.985-36.154,14.962
			C-4.647,35.269-4.667,67.661,15.3,87.655c9.991,10.003,23.096,15.007,36.199,15.007c13.084,0,26.167-4.986,36.156-14.964
			c19.993-19.967,20.012-52.361,0.043-72.353C77.708,5.342,64.602,0.338,51.499,0.338L51.499,0.338z M51.5,75.071
			c13.008,0,23.591-10.583,23.591-23.591c0-12.411-9.693-22.753-22.071-23.544c-0.854-0.055-1.52-0.764-1.52-1.621v-7.342
			c0-0.444,0.182-0.869,0.504-1.177c0.303-0.289,0.705-0.447,1.122-0.447c0.026,0,0.053,0,0.079,0.002
			c8.754,0.433,16.922,4.178,23.003,10.547c6.102,6.391,9.461,14.766,9.461,23.582c0,18.841-15.327,34.169-34.169,34.169
			c-18.841,0-34.17-15.328-34.17-34.168c0-6.031,1.594-11.959,4.61-17.147l-2.646-3.021c-0.382-0.435-0.503-1.042-0.316-1.591
			c0.187-0.55,0.653-0.958,1.222-1.071l17.991-3.89c0.105-0.021,0.212-0.031,0.317-0.031c0.462,0,0.909,0.198,1.221,0.554
			c0.382,0.436,0.503,1.042,0.316,1.592l-5.287,18.351c-0.187,0.55-0.652,0.957-1.22,1.07c-0.106,0.021-0.212,0.031-0.317,0.031
			c-0.463,0-0.911-0.198-1.221-0.554l-2.505-2.819c-1.052,2.718-1.586,5.585-1.586,8.526C27.908,64.487,38.491,75.07,51.5,75.071
			L51.5,75.071z"/>
	</g>
</g>
</svg>
