<?xml version="1.0" encoding="utf-8"?>
<!-- Generator: Adobe Illustrator 16.0.4, SVG Export Plug-In . SVG Version: 6.00 Build 0)  -->
<!DOCTYPE svg PUBLIC "-//W3C//DTD SVG 1.1//EN" "http://www.w3.org/Graphics/SVG/1.1/DTD/svg11.dtd">
<svg version="1.1" id="Capa_1" xmlns="http://www.w3.org/2000/svg" xmlns:xlink="http://www.w3.org/1999/xlink" x="0px" y="0px"
	 width="103px" height="103px" viewBox="0 0 103 103" enable-background="new 0 0 103 103" xml:space="preserve">
<g>
	<g>
		<g>
			<g>
				<path fill="#C0E0B4" d="M51.5,101.5c-27.57,0-50-22.43-50-50s22.43-50,50-50s50,22.43,50,50S79.07,101.5,51.5,101.5z
					 M39.453,70.291c-0.928,0.923-1.442,2.16-1.444,3.479c-0.001,1.323,0.511,2.564,1.444,3.497
					c0.933,0.929,2.171,1.438,3.488,1.438s2.555-0.51,3.485-1.436l22.271-22.271c0.93-0.93,1.441-2.172,1.441-3.498
					c0.012-1.329-0.504-2.58-1.452-3.509L46.429,25.733c-0.931-0.931-2.169-1.444-3.487-1.444c-1.319,0-2.558,0.513-3.488,1.444
					c-1.923,1.923-1.923,5.052,0,6.976L58.244,51.5L39.453,70.291z"/>
				<path fill="#414749" d="M51.5,3C78.243,3,100,24.757,100,51.5S78.243,100,51.5,100S3,78.243,3,51.5S24.757,3,51.5,3
					 M56.123,51.5L38.398,69.225c-1.216,1.209-1.886,2.823-1.888,4.543c-0.002,1.725,0.666,3.344,1.888,4.565
					c1.213,1.207,2.827,1.872,4.543,1.872s3.33-0.665,4.548-1.878l22.269-22.269c1.213-1.213,1.881-2.831,1.881-4.532
					c0.016-1.753-0.66-3.39-1.881-4.585L47.49,24.673c-1.214-1.214-2.83-1.883-4.549-1.883s-3.334,0.669-4.548,1.883
					c-1.214,1.214-1.883,2.829-1.883,4.548s0.668,3.334,1.883,4.548L56.123,51.5 M51.5,0C23.058,0,0,23.058,0,51.5
					C0,79.949,23.058,103,51.5,103c28.449,0,51.5-23.051,51.5-51.5C103,23.058,79.949,0,51.5,0L51.5,0z M42.941,77.205
					c-0.879,0-1.758-0.333-2.427-0.999c-1.339-1.339-1.339-3.522,0-4.854L60.365,51.5L40.514,31.648
					c-1.339-1.339-1.339-3.516,0-4.854c0.669-0.669,1.549-1.004,2.428-1.004s1.757,0.334,2.427,1.004l22.269,22.269
					c0.687,0.673,1.01,1.559,1.002,2.438c0,0.886-0.329,1.765-1.002,2.438L45.368,76.206C44.699,76.872,43.82,77.205,42.941,77.205
					L42.941,77.205z"/>
			</g>
		</g>
	</g>
</g>
</svg>
