<?xml version="1.0" encoding="utf-8"?>
<!-- Generator: Adobe Illustrator 16.0.4, SVG Export Plug-In . SVG Version: 6.00 Build 0)  -->
<!DOCTYPE svg PUBLIC "-//W3C//DTD SVG 1.1//EN" "http://www.w3.org/Graphics/SVG/1.1/DTD/svg11.dtd">
<svg version="1.1" id="Layer_1" xmlns="http://www.w3.org/2000/svg" xmlns:xlink="http://www.w3.org/1999/xlink" x="0px" y="0px"
	 width="103px" height="103px" viewBox="0 0 103 103" enable-background="new 0 0 103 103" xml:space="preserve">
<g>
	<path fill="#3757A7" d="M12.473,101.205c-6.05,0-10.973-4.922-10.973-10.973V12.473C1.5,6.423,6.422,1.5,12.473,1.5h77.759
		c6.051,0,10.973,4.922,10.973,10.973v77.759c0,6.051-4.922,10.973-10.973,10.973H12.473z"/>
	<path fill="#424749" d="M90.231,3c5.224,0,9.473,4.25,9.473,9.473v77.759c0,5.224-4.249,9.473-9.473,9.473H12.473
		C7.25,99.705,3,95.456,3,90.232V12.473C3,7.25,7.25,3,12.473,3H90.231 M90.231,0H12.473C5.584,0,0,5.584,0,12.473v77.759
		c0,6.888,5.584,12.473,12.473,12.473h77.759c6.888,0,12.473-5.585,12.473-12.473V12.473C102.704,5.584,97.119,0,90.231,0L90.231,0z
		"/>
</g>
<g>
	<path fill="#FFFFFF" d="M86.394,20.421H62.891v-7.213c0-0.878-0.714-1.591-1.593-1.591H41.623c-0.879,0-1.592,0.712-1.592,1.591
		v19.677c0,0.878,0.713,1.591,1.592,1.591h19.675c0.879,0,1.593-0.713,1.593-1.591v-7.213H83.77v22.904h-3.207l1.366-3.326
		c0.052-0.124,0.021-0.266-0.076-0.356c-0.099-0.091-0.24-0.113-0.362-0.054l-12.22,6.039c-0.123,0.061-0.2,0.185-0.2,0.322
		s0.077,0.262,0.2,0.321l12.22,6.04c0.122,0.059,0.264,0.037,0.362-0.055c0.097-0.09,0.128-0.23,0.076-0.355l-1.366-3.325h5.831
		c1.452,0,2.626-1.176,2.626-2.626V23.046C89.02,21.597,87.846,20.421,86.394,20.421z M57.64,29.226H45.281V16.867H57.64V29.226z"/>
	<path fill="#FFFFFF" d="M61.298,39.664H41.623c-0.879,0-1.592,0.713-1.592,1.591v7.32H15.275c-1.451,0-2.625,1.175-2.625,2.625
		v28.153c0,1.45,1.174,2.625,2.625,2.625h5.832l-1.366,3.326c-0.051,0.124-0.021,0.266,0.076,0.356
		c0.098,0.092,0.242,0.113,0.362,0.054l12.22-6.039c0.123-0.061,0.2-0.185,0.2-0.322s-0.077-0.262-0.2-0.321l-12.22-6.04
		c-0.12-0.059-0.264-0.037-0.362,0.054c-0.097,0.092-0.127,0.232-0.076,0.356l1.366,3.327H17.9V53.824h22.131v7.107
		c0,0.879,0.713,1.591,1.592,1.591h19.675c0.879,0,1.593-0.712,1.593-1.591V41.255C62.891,40.377,62.177,39.664,61.298,39.664z
		 M57.64,57.273H45.281V44.914H57.64V57.273z"/>
	<path fill="#FFFFFF" d="M61.298,67.712H41.623c-0.879,0-1.592,0.713-1.592,1.59v19.678c0,0.878,0.713,1.591,1.592,1.591h19.675
		c0.879,0,1.593-0.713,1.593-1.591V69.302C62.891,68.425,62.177,67.712,61.298,67.712z M57.64,85.319H45.281V72.962H57.64V85.319z"
		/>
</g>
</svg>
