<?xml version="1.0" encoding="utf-8"?>
<!-- Generator: Adobe Illustrator 16.0.4, SVG Export Plug-In . SVG Version: 6.00 Build 0)  -->
<!DOCTYPE svg PUBLIC "-//W3C//DTD SVG 1.1//EN" "http://www.w3.org/Graphics/SVG/1.1/DTD/svg11.dtd">
<svg version="1.1" id="Capa_1" xmlns="http://www.w3.org/2000/svg" xmlns:xlink="http://www.w3.org/1999/xlink" x="0px" y="0px"
	 width="55px" height="55px" viewBox="0 0 55 55" enable-background="new 0 0 55 55" xml:space="preserve">
<g>
	<g>
		<path fill="#FF7878" d="M27.5,54.5c-14.888,0-27-12.112-27-27s12.112-27,27-27s27,12.112,27,27S42.388,54.5,27.5,54.5z M27.5,6.5
			c-11.58,0-21,9.42-21,21c0,11.579,9.42,21,21,21c11.579,0,21-9.421,21-21C48.5,15.92,39.079,6.5,27.5,6.5z M27.5,38.833
			c-6.249,0-11.333-5.084-11.333-11.333S21.251,16.167,27.5,16.167S38.833,21.251,38.833,27.5S33.749,38.833,27.5,38.833z
			 M27.5,22.167c-2.94,0-5.333,2.393-5.333,5.333s2.393,5.333,5.333,5.333s5.333-2.393,5.333-5.333S30.44,22.167,27.5,22.167z"/>
		<path fill="#414749" d="M27.5,1C42.112,1,54,12.888,54,27.5S42.112,54,27.5,54S1,42.112,1,27.5S12.888,1,27.5,1 M27.5,49
			C39.355,49,49,39.355,49,27.5C49,15.645,39.355,6,27.5,6C15.645,6,6,15.645,6,27.5C6,39.355,15.645,49,27.5,49 M27.5,16.667
			c5.974,0,10.833,4.86,10.833,10.833c0,5.974-4.859,10.833-10.833,10.833c-5.973,0-10.833-4.859-10.833-10.833
			C16.667,21.527,21.527,16.667,27.5,16.667 M27.5,33.333c3.217,0,5.833-2.616,5.833-5.833c0-3.216-2.616-5.833-5.833-5.833
			c-3.216,0-5.833,2.617-5.833,5.833C21.667,30.717,24.284,33.333,27.5,33.333 M27.5,0C12.336,0,0,12.336,0,27.5
			C0,42.663,12.336,55,27.5,55C42.663,55,55,42.663,55,27.5C55,12.336,42.663,0,27.5,0L27.5,0z M27.5,48C16.196,48,7,38.805,7,27.5
			C7,16.196,16.196,7,27.5,7C38.805,7,48,16.196,48,27.5C48,38.805,38.805,48,27.5,48L27.5,48z M27.5,15.667
			c-6.525,0-11.833,5.308-11.833,11.833c0,6.523,5.308,11.833,11.833,11.833c6.523,0,11.833-5.31,11.833-11.833
			C39.333,20.975,34.023,15.667,27.5,15.667L27.5,15.667z M27.5,32.333c-2.665,0-4.833-2.168-4.833-4.833s2.168-4.833,4.833-4.833
			s4.833,2.168,4.833,4.833S30.165,32.333,27.5,32.333L27.5,32.333z"/>
	</g>
</g>
</svg>
