<?xml version="1.0" encoding="utf-8"?>
<!-- Generator: Adobe Illustrator 16.0.4, SVG Export Plug-In . SVG Version: 6.00 Build 0)  -->
<!DOCTYPE svg PUBLIC "-//W3C//DTD SVG 1.1//EN" "http://www.w3.org/Graphics/SVG/1.1/DTD/svg11.dtd">
<svg version="1.1" id="Layer_1" xmlns="http://www.w3.org/2000/svg" xmlns:xlink="http://www.w3.org/1999/xlink" x="0px" y="0px"
	 width="103px" height="103px" viewBox="0 0 103 103" enable-background="new 0 0 103 103" xml:space="preserve">
<g>
	<path fill="#FFFFFF" d="M51.478,100.624c-27.087,0-49.124-22.037-49.124-49.124S24.391,2.376,51.478,2.376
		s49.124,22.037,49.124,49.124S78.564,100.624,51.478,100.624z"/>
	<path fill="#7D7D7D" d="M51.478,3.876c26.26,0,47.624,21.364,47.624,47.624S77.737,99.124,51.478,99.124S3.854,77.76,3.854,51.5
		S25.218,3.876,51.478,3.876 M51.478,0.876C23.519,0.876,0.854,23.542,0.854,51.5c0,27.959,22.666,50.624,50.624,50.624
		c27.959,0,50.624-22.665,50.624-50.624C102.102,23.542,79.437,0.876,51.478,0.876L51.478,0.876z"/>
</g>
<g>
	<path fill="#85C0B6" d="M79.889,70.791l-2.576-5.21c-4.454,8.596-12.979,14.746-23.021,15.863l2.467-5.894
		c0.086-0.207,0.035-0.447-0.128-0.599c-0.166-0.155-0.409-0.191-0.608-0.091c-5.418,2.679-17.803,8.8-21.156,10.459
		c-0.213,0.105-0.346,0.322-0.346,0.557c0,0.237,0.133,0.452,0.346,0.559c16.903,8.353,12.446,6.15,21.156,10.456
		c0.199,0.1,0.442,0.062,0.608-0.089c0.163-0.155,0.214-0.393,0.125-0.6l-2.421-5.791c11.922-1.027,22.32-7.477,28.668-16.892
		C81.662,73.035,80.511,72.082,79.889,70.791z"/>
	<path fill="#DFD0B8" d="M22.111,33.209l2.579,5.21c4.454-8.593,12.98-14.744,23.016-15.859l-2.463,5.891
		c-0.084,0.207-0.035,0.445,0.129,0.6c0.165,0.153,0.407,0.189,0.607,0.089c17.728-8.766,3.074-1.518,21.157-10.458
		c0.213-0.105,0.347-0.322,0.347-0.556c0-0.001,0-0.001,0-0.001c0-0.236-0.134-0.453-0.347-0.557
		C50.384,9.285,54.782,11.46,45.979,7.109c-0.2-0.099-0.442-0.062-0.607,0.09c-0.164,0.154-0.213,0.393-0.129,0.599l2.423,5.792
		c-11.92,1.029-22.316,7.478-28.667,16.89C20.338,30.967,21.488,31.919,22.111,33.209z"/>
	<path fill="#B7B7B5" d="M21.505,54.803l5.948,2.485c0.207,0.09,0.448,0.035,0.599-0.128c0.154-0.161,0.19-0.403,0.091-0.605
		c-6.713-13.576-3.892-7.87-10.462-21.157v-0.003c-0.106-0.211-0.32-0.345-0.556-0.345c-0.235,0-0.451,0.134-0.556,0.345
		c-8.783,17.771-6.218,12.582-10.458,21.16c-0.1,0.202-0.065,0.444,0.089,0.605c0.151,0.163,0.393,0.218,0.6,0.128l5.767-2.411
		c0.911,12.264,7.554,22.943,17.279,29.349c0.453-1.439,1.463-2.672,2.829-3.336l4.98-2.465
		C28.796,73.936,22.481,65.143,21.505,54.803z"/>
	<path display="none" fill="#010101" d="M32.54,52.002c0,10.193,8.268,18.459,18.46,18.459c10.194,0,18.46-8.266,18.46-18.459
		c0-10.195-8.266-18.46-18.46-18.46C40.808,33.543,32.54,41.807,32.54,52.002z"/>
	<path fill="#EA596E" d="M95.8,46.84c-0.151-0.164-0.391-0.214-0.601-0.128l-5.767,2.411c-0.911-12.262-7.552-22.942-17.277-29.347
		c-0.452,1.436-1.462,2.668-2.827,3.333l-4.984,2.465c8.858,4.491,15.177,13.28,16.15,23.621l-5.943-2.483
		c-0.21-0.088-0.449-0.038-0.601,0.128c-0.155,0.162-0.188,0.404-0.09,0.605c8.687,17.572,0.437,0.875,10.461,21.157
		c0.052,0.106,0.131,0.193,0.226,0.253c0.101,0.06,0.213,0.095,0.331,0.095c0.236,0,0.45-0.136,0.557-0.348
		c8.422-17.049,6.114-12.378,10.455-21.157C95.988,47.245,95.953,47.002,95.8,46.84z"/>
</g>
<g>
	<path fill="#98CEEF" d="M67.122,38.273h-10.86V34.94c0-0.406-0.329-0.735-0.736-0.735h-9.091c-0.406,0-0.735,0.329-0.735,0.735
		v9.092c0,0.406,0.33,0.735,0.735,0.735h9.091c0.407,0,0.736-0.329,0.736-0.735v-3.333h9.647v10.583h-1.481l0.631-1.537
		c0.024-0.057,0.011-0.122-0.034-0.164s-0.112-0.052-0.166-0.025l-5.647,2.792c-0.058,0.027-0.094,0.085-0.094,0.148
		c0,0.062,0.036,0.12,0.094,0.149l5.647,2.789c0.054,0.027,0.121,0.018,0.166-0.026c0.045-0.039,0.059-0.105,0.034-0.163
		l-0.631-1.537h2.694c0.672,0,1.213-0.541,1.213-1.212v-13.01C68.335,38.816,67.794,38.273,67.122,38.273z M53.836,42.341h-5.711
		v-5.71h5.711V42.341z"/>
	<path fill="#98CEEF" d="M55.525,47.166h-9.091c-0.406,0-0.735,0.329-0.735,0.734v3.382H34.259c-0.67,0-1.213,0.544-1.213,1.214
		v13.01c0,0.669,0.543,1.213,1.213,1.213h2.695l-0.631,1.537c-0.023,0.056-0.01,0.122,0.035,0.163
		c0.045,0.044,0.112,0.052,0.168,0.025l5.647-2.79c0.056-0.029,0.092-0.085,0.092-0.148c0-0.065-0.036-0.123-0.092-0.15
		l-5.647-2.791c-0.056-0.025-0.123-0.018-0.168,0.024c-0.045,0.043-0.059,0.108-0.035,0.166l0.631,1.536h-1.481V53.708h10.226v3.285
		c0,0.404,0.33,0.733,0.735,0.733h9.091c0.407,0,0.736-0.329,0.736-0.733v-9.094C56.262,47.494,55.933,47.166,55.525,47.166z
		 M53.836,55.301h-5.711v-5.71h5.711V55.301z"/>
	<path fill="#98CEEF" d="M55.525,60.126h-9.091c-0.406,0-0.735,0.329-0.735,0.734v9.094c0,0.404,0.33,0.734,0.735,0.734h9.091
		c0.407,0,0.736-0.33,0.736-0.734V60.86C56.262,60.455,55.933,60.126,55.525,60.126z M53.836,68.262h-5.711v-5.71h5.711V68.262z"/>
</g>
</svg>
