<?xml version="1.0" encoding="utf-8"?>
<!-- Generator: Adobe Illustrator 16.0.4, SVG Export Plug-In . SVG Version: 6.00 Build 0)  -->
<!DOCTYPE svg PUBLIC "-//W3C//DTD SVG 1.1//EN" "http://www.w3.org/Graphics/SVG/1.1/DTD/svg11.dtd">
<svg version="1.1" id="Layer_1" xmlns="http://www.w3.org/2000/svg" xmlns:xlink="http://www.w3.org/1999/xlink" x="0px" y="0px"
	 width="103px" height="103px" viewBox="0 0 103 103" enable-background="new 0 0 103 103" xml:space="preserve">
<g>
	<rect x="1.5" y="1.5" fill="#B1E3FA" width="100" height="100"/>
	<path fill="#424749" d="M100,3v97H3V3H100 M103,0H0v103h103V0L103,0z"/>
</g>
<g>
	<g>
		<g>
			<path fill="#424749" d="M85.729,12.333H16.955c-2.59,0-4.697,2.319-4.697,5.171v67.827c0,2.85,2.107,5.168,4.697,5.168h68.773
				c2.59,0,4.697-2.318,4.697-5.168V17.505C90.426,14.653,88.318,12.333,85.729,12.333z M71.566,21.017
				c0-1.056,0.775-1.909,1.732-1.909h1.736c0.959,0,1.734,0.854,1.734,1.909v2.164c0,1.055-0.777,1.91-1.734,1.91h-1.736
				c-0.957,0-1.732-0.855-1.732-1.91V21.017z M63.5,21.017c0-1.056,0.777-1.909,1.736-1.909h1.732c0.957,0,1.734,0.854,1.734,1.909
				v2.164c0,1.055-0.777,1.91-1.734,1.91h-1.732c-0.959,0-1.736-0.855-1.736-1.91V21.017z M84.787,84.295H17.896V30.824h66.892
				V84.295L84.787,84.295z M84.836,23.18c0,1.055-0.779,1.91-1.736,1.91h-1.734c-0.959,0-1.734-0.855-1.734-1.91v-2.164
				c0-1.056,0.775-1.909,1.734-1.909H83.1c0.959,0,1.736,0.854,1.736,1.909V23.18z"/>
			<path fill="#424749" d="M29.037,59.576l12.574,6.438c0.324,0.166,0.671,0.248,1.028,0.248c0.467,0,0.921-0.146,1.316-0.42
				c0.707-0.498,1.129-1.346,1.129-2.27v-0.07c0-1.041-0.555-2-1.414-2.438l-7.864-4.023l7.864-4.022
				c0.859-0.439,1.414-1.396,1.414-2.439v-0.069c0-0.925-0.422-1.772-1.129-2.269c-0.391-0.274-0.846-0.42-1.317-0.42
				c-0.354,0-0.71,0.086-1.028,0.25l-12.573,6.435c-0.858,0.44-1.413,1.398-1.413,2.439v0.193
				C27.624,58.178,28.178,59.135,29.037,59.576z"/>
			<path fill="#424749" d="M45.196,72.686c0.458,0.691,1.196,1.105,1.974,1.105h0.062c1.068,0,2.001-0.754,2.326-1.869l8.284-28.25
				c0.236-0.817,0.105-1.716-0.354-2.409c-0.459-0.691-1.195-1.104-1.973-1.104h-0.064c-1.065,0-2.002,0.751-2.328,1.869
				l-8.283,28.25C44.605,71.098,44.738,71.994,45.196,72.686z"/>
			<path fill="#424749" d="M57.6,50.58c0,1.042,0.555,1.999,1.414,2.44l7.863,4.021l-7.863,4.023
				c-0.859,0.438-1.414,1.396-1.414,2.438v0.07c0,0.924,0.422,1.771,1.131,2.27c0.393,0.273,0.846,0.42,1.314,0.42
				c0.355,0,0.701-0.082,1.029-0.25l12.572-6.436c0.859-0.441,1.412-1.398,1.412-2.439v-0.191c0-1.041-0.553-2-1.412-2.439
				l-12.572-6.435c-0.316-0.163-0.674-0.25-1.027-0.25c-0.471,0-0.924,0.146-1.316,0.42c-0.707,0.497-1.131,1.344-1.131,2.268V50.58
				L57.6,50.58L57.6,50.58z"/>
		</g>
	</g>
</g>
</svg>
